<svg width="24" height="18" viewBox="0 0 24 18" fill="none" xmlns="http://www.w3.org/2000/svg">
<g clip-path="url(#clip0_80_1979)">
<path fill-rule="evenodd" clip-rule="evenodd" d="M0 -3.05176e-05H32.8051V1.32865H0V-3.05176e-05ZM0 2.65729H32.8051V3.98597H0V2.65729ZM0 5.31123H32.8051V6.64326H0V5.31123ZM0 7.96856H32.8051V9.29724H0V7.96856ZM0 10.6259H32.8051V11.9546H0V10.6259ZM0 13.2798H32.8051V14.6085H0V13.2798ZM0 15.9371H32.8051V17.2658H0V15.9371Z" fill="#BD3D44"/>
<path fill-rule="evenodd" clip-rule="evenodd" d="M0 1.32864H32.8051V2.65729H0V1.32864ZM0 3.98593H32.8051V5.31123H0V3.98593ZM0 6.63991H32.8051V7.96855H0V6.63991ZM0 9.29723H32.8051V10.6259H0V9.29723ZM0 11.9546H32.8051V13.2832H0V11.9546ZM0 14.6085H32.8051V15.9372H0V14.6085Z" fill="white"/>
<path fill-rule="evenodd" clip-rule="evenodd" d="M0 -3.05176e-05H13.1214V9.29724H0V-3.05176e-05Z" fill="#192F5D"/>
<path fill-rule="evenodd" clip-rule="evenodd" d="M1.09273 0.397919L1.21413 0.76543H1.59859L1.2883 0.991397L1.40636 1.36232L1.09273 1.13301L0.782486 1.35894L0.900505 0.991397L0.586914 0.76543H0.978094L1.09273 0.397919ZM3.28132 0.397919L3.39934 0.76543H3.78714L3.47351 0.991397L3.59157 1.36232L3.28132 1.13301L2.9677 1.35894L3.08572 0.991397L2.77547 0.76543H3.15992L3.28132 0.397919ZM5.46653 0.397919L5.58793 0.765466H5.969L5.65876 0.991433L5.77674 1.36236L5.46315 1.13305L5.15291 1.35898L5.27092 0.991433L4.9573 0.765466H5.34513L5.46653 0.397919ZM7.65512 0.397919L7.77311 0.765466H8.16094L7.84731 0.991433L7.96871 1.36236L7.65509 1.13305L7.3415 1.35898L7.4629 0.991433L7.14927 0.765466H7.53372L7.65512 0.397919ZM9.84033 0.397919L9.96173 0.765466H10.3462L10.0359 0.991433L10.1539 1.36236L9.8403 1.13305L9.53005 1.35898L9.64811 0.991433L9.33786 0.765466H9.72228L9.84033 0.397919ZM12.0289 0.397919L12.1469 0.765466H12.5347L12.2211 0.991433L12.3425 1.36236L12.0289 1.13305L11.7153 1.35898L11.8367 0.991433L11.5231 0.765466H11.9109L12.0289 0.397919ZM2.18872 1.32858L2.30674 1.6962H2.69454L2.38091 1.9221L2.49558 2.28972L2.19206 2.06375L1.87847 2.28968L1.98973 1.92213L1.68625 1.69617H2.0707L2.18872 1.32858ZM4.37393 1.32858L4.49533 1.6962H4.87975L4.56612 1.9221L4.68755 2.28972L4.37389 2.06375L4.0603 2.28968L4.1817 1.92213L3.86807 1.69617H4.25587L4.37393 1.32858ZM6.56252 1.32858L6.6805 1.6962H7.06834L6.75471 1.9221L6.87273 2.28972L6.56248 2.06375L6.24889 2.28968L6.36691 1.92217L6.05666 1.6962H6.44112L6.56252 1.32858ZM8.74773 1.32858L8.86913 1.6962H9.25355L8.93992 1.9221L9.06132 2.28972L8.74769 2.06375L8.43745 2.28968L8.5555 1.92213L8.24187 1.69617H8.63305L8.74773 1.32858ZM10.9363 1.32858L11.0543 1.6962H11.4421L11.1285 1.9221L11.2465 2.28972L10.9363 2.06375L10.6227 2.28968L10.7407 1.92213L10.4305 1.69617H10.8149L10.9363 1.32858ZM1.09273 2.25605L1.21413 2.63036H1.59859L1.2883 2.85629L1.40636 3.22387L1.09273 2.99456L0.782486 3.22387L0.900505 2.85291L0.586914 2.62701H0.978094L1.09273 2.25605ZM3.28132 2.25605L3.39934 2.6269H3.78714L3.47351 2.85284L3.59157 3.22045L3.28132 2.99111L2.9677 3.22042L3.08572 2.84949L2.77547 2.62356H3.15992L3.28132 2.25605ZM5.46653 2.25605L5.58793 2.62698H5.969L5.65876 2.85291L5.77674 3.22053L5.46315 2.99118L5.15291 3.22049L5.27092 2.84956L4.9573 2.62363H5.34513L5.46653 2.25605ZM7.65512 2.25605L7.77311 2.62698H8.16094L7.84731 2.85291L7.96871 3.22053L7.65509 2.99118L7.3415 3.22049L7.4629 2.84956L7.14927 2.62363H7.53372L7.65512 2.25605ZM9.84033 2.25605L9.96173 2.62698H10.3462L10.0359 2.85287L10.1539 3.22049L9.8403 2.99114L9.53005 3.22045L9.64811 2.84953L9.33786 2.6236H9.72228L9.84033 2.25605ZM12.0289 2.25605L12.1469 2.62698H12.5347L12.2211 2.85291L12.3425 3.22053L12.0289 2.99118L11.7153 3.22049L11.8367 2.84956L11.5231 2.62363H11.9109L12.0289 2.25605ZM2.18872 3.18675L2.30674 3.55433H2.69454L2.38091 3.78023L2.49896 4.15119L2.18872 3.92188L1.87509 4.14781L1.99311 3.78026L1.68286 3.55433H2.06735L2.18872 3.18675ZM4.37393 3.18675L4.49533 3.55433H4.87975L4.56612 3.78023L4.68755 4.15119L4.37389 3.92188L4.0603 4.14781L4.1817 3.78026L3.86807 3.55433H4.25587L4.37393 3.18675ZM6.56252 3.18675L6.6805 3.55433H7.06834L6.75471 3.78023L6.87273 4.15119L6.56248 3.92188L6.24889 4.14781L6.36691 3.78026L6.05666 3.55433H6.44112L6.56252 3.18675ZM8.74773 3.18675L8.86913 3.55433H9.25355L8.9433 3.78023L9.06132 4.15119L8.74769 3.92188L8.43745 4.14781L8.5555 3.78026L8.24187 3.55433H8.63305L8.74773 3.18675ZM10.9363 3.18675L11.0543 3.55433H11.4421L11.1285 3.78023L11.2465 4.15119L10.9363 3.92188L10.6227 4.14781L10.7407 3.78026L10.4305 3.55433H10.8149L10.9363 3.18675ZM1.09273 4.11749L1.21413 4.48507H1.59859L1.2883 4.71097L1.40636 5.08193L1.09273 4.85262L0.782486 5.07855L0.900505 4.711L0.586914 4.48507H0.978094L1.09273 4.11749ZM3.28132 4.11749L3.39934 4.48507H3.78714L3.47351 4.71097L3.59157 5.07859L3.28132 4.85262L2.9677 5.07855L3.08572 4.711L2.77547 4.48507H3.15992L3.28132 4.11749ZM5.46653 4.11749L5.58793 4.48507H5.969L5.65876 4.71097L5.77674 5.08193L5.46315 4.85262L5.15291 5.07855L5.27092 4.711L4.9573 4.48507H5.34513L5.46653 4.11749ZM7.65512 4.11749L7.77311 4.48507H8.16094L7.84731 4.71097L7.96871 5.08193L7.65509 4.85262L7.3415 5.07855L7.4629 4.711L7.14927 4.48507H7.53372L7.65512 4.11749ZM9.84033 4.11749L9.96173 4.48507H10.3462L10.0359 4.71097L10.1539 5.08193L9.8403 4.85262L9.53005 5.07855L9.64811 4.711L9.33786 4.48507H9.72228L9.84033 4.11749ZM12.0289 4.11749L12.1469 4.48507H12.5347L12.2211 4.71097L12.3425 5.08193L12.0289 4.85262L11.7153 5.07855L11.8367 4.711L11.5231 4.48507H11.9109L12.0289 4.11749ZM2.18872 5.04823L2.30674 5.41581H2.69454L2.38091 5.6417L2.49896 6.00932L2.18872 5.78001L1.87509 6.00932L1.99311 5.63836L1.68286 5.41243H2.06735L2.18872 5.04823ZM4.37393 5.04823L4.49533 5.41581H4.87975L4.56612 5.6417L4.68755 6.00932L4.37389 5.78001L4.0603 6.00932L4.1817 5.63836L3.86807 5.41243H4.25587L4.37393 5.04823ZM6.56252 5.04823L6.6805 5.41581H7.06834L6.75471 5.6417L6.87273 6.00932L6.56248 5.78001L6.24889 6.00932L6.36691 5.63836L6.05666 5.41243H6.44112L6.56252 5.04823ZM8.74773 5.04823L8.86913 5.41581H9.25355L8.9433 5.6417L9.06132 6.00932L8.74769 5.78001L8.43745 6.00932L8.5555 5.63836L8.24187 5.41243H8.63305L8.74773 5.04823ZM10.9363 5.04823L11.0543 5.41581H11.4421L11.1285 5.6417L11.2465 6.00932L10.9363 5.78001L10.6227 6.00932L10.7407 5.63836L10.4305 5.41243H10.8149L10.9363 5.04823ZM1.09273 5.97558L1.21413 6.34655H1.59859L1.2883 6.57244L1.40636 6.93668L1.09273 6.71075L0.782486 6.93664L0.900505 6.5691L0.586914 6.34316H0.978094L1.09273 5.97558ZM3.28132 5.97558L3.39934 6.34655H3.78714L3.47351 6.57244L3.59495 6.93668L3.28129 6.71075L2.9677 6.93664L3.0891 6.5691L2.77547 6.34316H3.15992L3.28132 5.97558ZM5.46653 5.97558L5.58793 6.34655H5.969L5.65876 6.57244L5.77674 6.93668L5.46315 6.71075L5.15291 6.93664L5.27092 6.5691L4.9573 6.34316H5.34513L5.46653 5.97558ZM7.65512 5.97558L7.77311 6.34655H8.16094L7.84731 6.57244L7.96871 6.93668L7.65509 6.71075L7.3415 6.93664L7.4629 6.5691L7.14927 6.34316H7.53372L7.65512 5.97558ZM9.84033 5.97558L9.96173 6.34655H10.3462L10.0359 6.57244L10.1539 6.93668L9.8403 6.71075L9.53005 6.93664L9.64811 6.5691L9.33786 6.34316H9.72228L9.84033 5.97558ZM12.0289 5.97558L12.1469 6.34655H12.5347L12.2211 6.57244L12.3425 6.93668L12.0289 6.71075L11.7153 6.93664L11.8367 6.5691L11.5231 6.34316H11.9109L12.0289 5.97558ZM2.18872 6.90632L2.30674 7.2739H2.69454L2.38091 7.49983L2.49896 7.8708L2.18872 7.64149L1.87509 7.86738L1.99311 7.49983L1.68286 7.2739H2.06735L2.18872 6.90632ZM4.37393 6.90632L4.49533 7.2739H4.87975L4.56612 7.49983L4.68755 7.8708L4.37389 7.64149L4.0603 7.86738L4.1817 7.49983L3.86807 7.2739H4.25587L4.37393 6.90632ZM6.56252 6.90632L6.6805 7.2739H7.06834L6.75471 7.49983L6.87273 7.8708L6.56248 7.64149L6.24889 7.86738L6.36691 7.49983L6.05666 7.2739H6.44112L6.56252 6.90632ZM8.74773 6.90632L8.86913 7.2739H9.25355L8.9433 7.49983L9.06132 7.8708L8.74769 7.64149L8.43745 7.86738L8.5555 7.49983L8.24187 7.2739H8.63305L8.74773 6.90632ZM10.9363 6.90632L11.0543 7.2739H11.4421L11.1285 7.49983L11.2465 7.8708L10.9363 7.64149L10.6227 7.86738L10.7407 7.49983L10.4305 7.2739H10.8149L10.9363 6.90632ZM1.09273 7.83706L1.21413 8.20464H1.59859L1.2883 8.43057L1.40636 8.79815L1.09273 8.57222L0.782486 8.79812L0.900505 8.42719L0.586914 8.20126H0.978094L1.09273 7.83706ZM3.28132 7.83706L3.39934 8.20464H3.78714L3.47351 8.43057L3.59495 8.79815L3.28129 8.57222L2.9677 8.79812L3.0891 8.42719L2.77547 8.20126H3.15992L3.28132 7.83706ZM5.46653 7.83706L5.58793 8.20464H5.969L5.66549 8.43057L5.7835 8.79815L5.46988 8.57222L5.15963 8.79812L5.27769 8.42719L4.96406 8.20126H5.35186L5.46653 7.83706ZM7.65512 7.83706L7.77311 8.20464H8.16094L7.84731 8.43057L7.96871 8.79815L7.65509 8.57222L7.3415 8.79812L7.4629 8.42719L7.14927 8.20126H7.53372L7.65512 7.83706ZM9.84033 7.83706L9.96173 8.20464H10.3462L10.0359 8.43057L10.1539 8.79815L9.8403 8.57222L9.53005 8.79812L9.64811 8.42719L9.33786 8.20126H9.72228L9.84033 7.83706ZM12.0289 7.83706L12.1469 8.20464H12.5347L12.2211 8.43057L12.3425 8.79815L12.0289 8.57222L11.7153 8.79812L11.8367 8.42719L11.5231 8.20126H11.9109L12.0289 7.83706Z" fill="white"/>
</g>
<defs>
<clipPath id="clip0_80_1979">
<rect y="-3.05176e-05" width="23.0211" height="17.2659" rx="1.43882" fill="white"/>
</clipPath>
</defs>
</svg>
