<?xml version="1.0" encoding="utf-8"?>
<!-- Generator: Adobe Illustrator 24.0.0, SVG Export Plug-In . SVG Version: 6.00 Build 0)  -->
<svg version="1.1" id="Capa_1" xmlns="http://www.w3.org/2000/svg" xmlns:xlink="http://www.w3.org/1999/xlink" x="0px" y="0px"
	 viewBox="0 0 1109.79 697.47" style="enable-background:new 0 0 1109.79 697.47;" xml:space="preserve">
<style type="text/css">
	.st0{fill:#3487D1;}
</style>
<g>
	<g id="XMLID_1_">
		<g>
			<path class="st0" d="M673.37,270.08c17.6,70.78,14.76,140.98-12.4,209.09c-33.81,84.82-92.02,148.5-175.42,186.37
				c-177.12,80.43-377.63,1.92-454.68-169.98c-79.04-176.36,0.3-377.55,176.18-453.98C376.09-31.87,560.8,45.49,637.56,185.1
				c-6.85,0-12.15,0-17.45,0c-92.62-0.02-185.24,0.21-277.86-0.19c-37.52-0.16-71.21,10.76-101.01,32.94
				c-36.01,26.82-58.75,62.38-66.46,107.01c-6.48,37.49-2.31,73.76,15.37,107.54c25.94,49.58,66.95,80.59,121.91,90.81
				c47.26,8.79,91.55-1.25,130.54-29.74c37.38-27.3,60.42-64.29,68.32-110.1c6.48-37.61,0.02-73.36-17.26-107.26
				c-0.74-1.44-1.32-2.95-1.89-4.45c-0.11-0.29,0.14-0.72,0.35-1.58C552.01,270.08,612.02,270.08,673.37,270.08z"/>
		</g>
		<g>
		</g>
	</g>
	<g id="XMLID_2_">
		<g>
			<path class="st0" d="M1109.54,696.07c-87.76,0-174.03,0-258.58,0c-58.32-58.25-115.91-115.76-174.1-173.87
				c45.7-80.88,57.16-167.57,35.51-259.91c3.83-0.16,7.73-0.46,11.63-0.46c56.8-0.03,113.59-0.12,170.39,0.05
				c13.13,0.05,24.24-3.84,32.61-14.12c2.56-3.13,5.06-6.68,6.29-10.46c4.19-12.82,4.26-25.93-0.3-38.63
				c-5.28-14.71-18.09-23.27-34.25-23.42c-19.34-0.17-38.69-0.05-58.03-0.05c-50.62,0-101.25,0-151.87,0c-3.68,0-7.35,0-11.55,0
				C616.83,77.19,529.86,19.05,415.76,1.01c2.91-0.21,5.81-0.59,8.72-0.59c169.15-0.02,338.31-0.53,507.46,0.3
				c61.02,0.3,109.48,27.36,145.39,76.82c16.46,22.68,26.07,48.08,30.99,75.43c0.65,3.62,0.61,7.39,0.63,11.08
				c0.16,31.69,0.15,63.38,0.41,95.07c0.33,39.21-12.08,74.13-35.67,105.09c-23.27,30.56-53.18,52.08-89.9,63.82
				c-12.92,4.13-26.16,6.15-39.73,7.21c-28.33,2.2-56.63,1.72-84.96,0.88c-2.27-0.07-4.57,0.88-7.36,1.46
				C937.76,523.84,1023.14,609.44,1109.54,696.07z"/>
		</g>
		<g>
		</g>
	</g>
</g>
</svg>
